PathFileType	4	(X/Y/Z)	TVC_12_BWA3_walk_RCNL2025.trc
DataRate	CameraRate	NumFrames	NumMarkers	Units	OrigDataRate	OrigDataStartFrame	OrigNumFrames
100	100	10	27	mm	100	133	354
Frame#	Time	R_Shoulder			L_Shoulder			C7			J_Notch			R_Elbow			L_Elbow			R_Wrist			L_Wrist			R_Asis			L_Asis			R_Psis			L_Psis			Sacral			Thoracic			Sternum			R_Thigh_Lateral			R_Knee_Lateral			R_Shank_Lateral			R_Ankle_Lateral			R_Heel			R_Toe			L_Thigh_Lateral			L_Knee_Lateral			L_Shank_Lateral			L_Ankle_Lateral			L_Heel			L_Toe		
		X1	Y1	Z1	X2	Y2	Z2	X3	Y3	Z3	X4	Y4	Z4	X5	Y5	Z5	X6	Y6	Z6	X7	Y7	Z7	X8	Y8	Z8	X9	Y9	Z9	X10	Y10	Z10	X11	Y11	Z11	X12	Y12	Z12	X13	Y13	Z13	X14	Y14	Z14	X15	Y15	Z15	X16	Y16	Z16	X17	Y17	Z17	X18	Y18	Z18	X19	Y19	Z19	X20	Y20	Z20	X21	Y21	Z21	X22	Y22	Z22	X23	Y23	Z23	X24	Y24	Z24	X25	Y25	Z25	X26	Y26	Z26	X27	Y27	Z27
133	1.32000000	-1019.136597	1332.486084	446.096558	-1023.119995	1335.840576	29.187853	-1128.979248	1405.742065	240.946655	-976.675964	1287.520142	239.777969	-1144.551758	1014.426331	502.976593	-1192.299927	1041.127319	-47.529427	-1094.974365	769.770020	462.652115	-1185.024048	802.623169	5.661501	-1081.049194	892.411560	404.783173	-1076.681519	911.248535	53.089947	-1253.014771	939.191589	290.116791	-1254.979126	952.713074	183.970291	-1253.996948	945.952332	237.043541	-1227.716431	1160.698120	232.732300	-906.412537	1089.203735	228.481598	-996.992126	611.872131	440.329712	-941.136658	494.546783	390.519928	-920.588867	283.026642	447.243622	-865.681763	70.960434	394.710297	-903.937622	54.238003	335.330505	-731.686279	95.796783	377.073181	-1166.303223	617.617859	8.457243	-1213.926270	470.585632	93.672249	-1276.056519	284.320282	54.765240	-1311.575195	72.372726	122.075523	-1354.988770	59.819969	175.842743	-1170.905884	39.229473	125.748451
134	1.33000000	-1011.547729	1329.837524	448.555115	-1015.393555	1334.478638	31.605776	-1121.384888	1403.973755	243.541214	-969.000977	1285.871460	242.114532	-1136.847412	1011.468933	504.227051	-1184.675293	1040.394043	-46.891773	-1087.597412	766.828369	463.667038	-1178.748901	801.684540	5.757729	-1072.084839	889.469116	405.701324	-1068.313721	909.938843	53.605202	-1244.493286	936.752625	291.053711	-1246.447510	950.432922	184.868652	-1245.470398	943.592773	237.961182	-1219.880371	1158.813477	234.527237	-898.372620	1087.722778	230.225632	-990.107849	607.791931	440.279510	-934.222290	491.396271	390.414154	-910.522644	280.492950	447.661896	-851.730469	69.406540	396.371246	-889.836487	52.226780	336.936279	-718.149109	95.261505	378.765747	-1158.373047	616.258667	9.252287	-1210.836548	470.363037	94.198914	-1274.172119	284.523163	55.380756	-1311.451660	72.816177	122.564964	-1354.668579	60.425591	176.439804	-1170.923828	39.106861	125.789673
135	1.34000000	-1003.906250	1327.200806	451.106110	-1007.762512	1333.167969	34.101974	-1113.769775	1402.262329	246.257004	-961.302429	1284.297852	244.531799	-1129.006836	1008.493896	505.549805	-1177.102051	1039.646606	-46.038506	-1080.158630	763.866913	464.697220	-1172.518982	800.675110	5.979733	-1062.910767	886.620972	406.610046	-1059.837646	908.660461	54.215622	-1235.847534	934.424377	292.155853	-1237.811157	948.202393	185.871536	-1236.829346	941.313385	239.013695	-1211.983154	1156.978149	236.439529	-890.244507	1086.345947	232.058487	-982.928711	603.861328	440.180267	-927.113281	488.460846	390.538147	-901.735352	277.906921	447.810455	-840.099731	67.815254	397.670319	-878.153442	50.669575	338.210205	-706.905823	93.170242	379.943634	-1150.034668	614.789490	10.097719	-1207.205811	470.064514	94.747711	-1271.889526	284.727325	56.002998	-1311.282349	73.381760	123.001144	-1354.309692	61.174858	176.991028	-1170.952271	39.008209	125.869301
136	1.35000000	-996.210144	1324.623535	453.741730	-1000.205933	1331.954834	36.670261	-1106.125122	1400.646362	249.084061	-953.572815	1282.835327	247.025360	-1121.027588	1005.553040	506.942505	-1169.577515	1038.929321	-44.956230	-1072.651489	760.937439	465.742157	-1166.274658	799.650513	6.311793	-1053.584106	883.956238	407.497314	-1051.257202	907.445801	54.932568	-1227.108154	932.273804	293.401825	-1229.083984	946.079041	186.963577	-1228.096069	939.176422	240.182701	-1204.022095	1155.235596	238.450775	-882.027466	1085.106079	233.985443	-975.502380	600.253174	440.078339	-919.782959	485.864563	390.909149	-894.074402	275.347015	447.741302	-830.639648	66.199753	398.628876	-868.747803	49.553761	339.179840	-697.740173	89.624367	380.657867	-1141.421753	613.246643	11.012956	-1202.971680	469.693024	95.327599	-1269.220337	284.973724	56.619740	-1311.060913	74.108459	123.355942	-1353.909546	62.102936	177.465408	-1170.971924	38.938625	125.969666
137	1.36000000	-988.457458	1322.154663	456.453125	-992.697754	1330.885010	39.304668	-1098.442139	1399.163818	252.010849	-945.804749	1281.518555	249.590256	-1112.910278	1002.700745	508.401947	-1162.096680	1038.288818	-43.634808	-1065.070435	758.093811	466.803070	-1159.980591	798.666016	6.747312	-1044.168335	881.561890	408.359375	-1042.578125	906.328064	55.766663	-1218.307617	930.362061	294.764923	-1220.281128	944.118164	188.129456	-1219.294373	937.240112	241.447189	-1195.995850	1153.628052	240.541977	-873.721924	1084.034180	236.010544	-967.863159	597.153809	440.049713	-912.206970	483.714264	391.542999	-887.334473	272.917511	447.539703	-823.147339	64.598671	399.287506	-861.413452	48.862541	339.887238	-690.402161	84.862724	380.995544	-1132.643799	611.681335	12.013787	-1198.080933	469.263000	95.941460	-1266.182983	285.311279	57.211411	-1310.774658	75.034370	123.602150	-1353.463989	63.249062	177.828964	-1170.963623	38.898464	126.074181
138	1.37000000	-980.646973	1319.843140	459.230499	-985.208008	1330.003052	41.999592	-1090.713379	1397.850220	255.024460	-937.991333	1280.380493	252.221115	-1104.657959	999.992126	509.924469	-1154.651855	1037.772217	-42.067955	-1057.410522	755.390503	467.882629	-1153.623230	797.775238	7.287210	-1034.729736	879.516235	409.201965	-1033.807007	905.340515	56.727608	-1209.478394	928.740662	296.214630	-1211.417114	942.370300	189.354813	-1210.447754	935.555481	242.784721	-1187.903442	1152.194092	242.694458	-865.330139	1083.158813	238.136230	-960.004822	594.751648	440.188629	-904.364990	482.089539	392.452087	-881.277283	270.731232	447.316162	-817.382019	63.065567	399.698822	-855.894470	48.566685	340.380707	-684.628052	79.245850	381.065216	-1123.759521	610.157166	13.109441	-1192.506226	468.802734	96.582687	-1262.800781	285.793976	57.751213	-1310.403931	76.193726	123.715256	-1352.966431	64.654800	178.046829	-1170.910156	38.884514	126.167366
139	1.38000000	-972.778503	1317.736816	462.063446	-977.704834	1329.349731	44.749866	-1082.933228	1396.737427	258.110870	-930.126648	1279.450684	254.912094	-1096.276733	997.481018	511.506195	-1147.233032	1037.425537	-40.253777	-1049.667542	752.880646	468.984802	-1147.203369	797.030731	7.937100	-1025.332397	877.882751	410.041138	-1024.950806	904.515625	57.824055	-1200.649658	927.448059	297.719116	-1202.505981	940.879150	190.627396	-1201.577820	934.163605	244.173256	-1179.744751	1150.967773	244.890701	-856.855957	1082.505249	240.362885	-951.872559	593.215698	440.593201	-896.245300	481.033325	393.642303	-875.657593	268.889343	447.192291	-813.082153	61.656704	399.918976	-851.904968	48.619442	340.707489	-680.160950	73.218140	380.979431	-1114.770264	608.746643	14.301061	-1186.255615	468.353668	97.233727	-1259.099243	286.476898	58.206638	-1309.921875	77.614738	123.674850	-1352.407715	66.361794	178.086121	-1170.796631	38.891354	126.234642
140	1.39000000	-964.853882	1315.880615	464.941376	-970.156494	1328.960938	47.550770	-1075.098267	1395.852173	261.255463	-922.206116	1278.755005	257.657074	-1087.775024	995.218323	513.143494	-1139.828735	1037.291138	-38.195198	-1041.838196	750.614319	470.114548	-1140.726990	796.484985	8.704899	-1016.033936	876.704773	410.903442	-1016.016296	903.883911	59.063438	-1191.845093	926.507629	299.247772	-1193.560181	939.679810	191.937973	-1192.702637	933.093719	245.592873	-1171.520508	1149.976440	247.115280	-848.304932	1082.094482	242.688538	-943.377319	592.665588	441.350189	-887.851562	480.544708	395.109344	-870.251526	267.462128	447.281677	-809.982849	60.420391	400.000824	-849.150818	48.957504	340.909180	-676.765076	67.246742	380.837585	-1105.642578	607.529480	15.579444	-1179.370850	467.966766	97.867538	-1255.103516	287.410828	58.542530	-1309.296509	79.318756	123.465729	-1351.774536	68.409073	177.919250	-1170.611450	38.912727	126.262413
141	1.40000000	-956.876831	1314.314819	467.853943	-962.533630	1328.865601	50.397923	-1067.207886	1395.214966	264.443298	-914.226807	1278.313965	260.449585	-1079.163574	993.249695	514.833252	-1132.425659	1037.405762	-35.900196	-1033.919586	748.636627	471.277634	-1134.196045	796.190613	9.599249	-1006.880493	876.002136	411.824219	-1007.010132	903.472473	60.451794	-1183.081177	925.926331	300.774414	-1184.590698	938.797119	193.281235	-1183.835938	932.361725	247.027824	-1163.232178	1149.240112	249.355728	-839.684143	1081.942261	245.108627	-934.425171	593.141907	442.520233	-879.211060	480.576843	396.835510	-864.883423	266.477448	447.668884	-807.830688	59.390484	399.989502	-847.350098	49.507164	341.019867	-674.231873	61.748859	380.713165	-1096.354858	606.592346	16.922812	-1171.917236	467.696259	98.450943	-1250.835571	288.636688	58.725235	-1308.494507	81.320549	123.078697	-1351.048462	70.830330	177.527649	-1170.346191	38.942738	126.238922
142	1.41000000	-948.853394	1313.073486	470.791321	-954.811768	1329.084717	53.287094	-1059.264404	1394.839111	267.659698	-906.187622	1278.142456	263.282990	-1070.455688	991.613525	516.573486	-1125.010132	1037.798096	-33.381847	-1025.909515	746.985870	472.480362	-1127.601440	796.198456	10.628839	-997.904419	875.770691	412.844391	-997.938477	903.303650	61.993587	-1174.365601	925.696411	302.280121	-1175.606445	938.245056	194.656448	-1174.986023	931.970734	248.468285	-1154.882324	1148.770874	251.603271	-831.002014	1082.059448	247.615875	-924.951355	594.588440	444.125946	-870.379639	481.041107	398.787811	-859.446594	265.918854	448.393616	-806.394592	58.583855	399.920990	-846.247498	50.192341	341.066467	-672.377991	57.032101	380.647247	-1086.937866	606.023865	18.294760	-1163.969604	467.592133	98.948669	-1246.309937	290.180756	58.727093	-1307.484863	83.628456	122.511879	-1350.205078	73.651596	176.905457	-1169.996826	38.976589	126.155663
